<?xml version="1.0" encoding="utf-8"?>
<!-- Generator: Adobe Illustrator 23.0.3, SVG Export Plug-In . SVG Version: 6.00 Build 0)  -->
<svg version="1.1" id="Layer_1" xmlns="http://www.w3.org/2000/svg" xmlns:xlink="http://www.w3.org/1999/xlink" x="0px" y="0px"
	 viewBox="0 0 841.9 595.3" style="enable-background:new 0 0 841.9 595.3;" xml:space="preserve">
<style type="text/css">
	.st0{fill-rule:evenodd;clip-rule:evenodd;}
	.st1{fill-rule:evenodd;clip-rule:evenodd;fill:#FFFFFF;stroke:#FFFFFF;stroke-miterlimit:10;}
	.st2{fill-rule:evenodd;clip-rule:evenodd;fill:#FFFFFF;}
	.st3{fill-rule:evenodd;clip-rule:evenodd;fill:#010101;}
</style>
<g>
	<g>
		<path class="st0" d="M651.4,344.6c-1.9,0.2-3.8-0.1-5.7-0.7c-1.6-0.5-3.1-1-4.6-1.7c-1.7-0.8-3.6-1.3-5.6-1.4
			c-1.1-0.1-2.2,0.2-3.1,0.8c-1,0.6-1.9,1.4-2.7,2.3c-2.4,2.7-5.5,4-9,4.7c-0.6,0.1-1.2,0.1-1.8,0.1c-1.3,0-2.6,0.2-3.9,0.6
			c-2.3,0.6-4.5,1.6-6.6,2.8c-1.6,0.9-3.1,1.8-4.7,2.6c-1,0.6-2.1,1.1-3.1,1.7c-0.8,0.4-1.6,0.7-2.5,0.9c-0.5,0.1-0.8-0.1-1.1-0.3
			c-0.7-0.6-1.2-1.3-1.6-2.1c-0.9-1.4-1.7-3-2.5-4.5c-0.5-1.1-0.9-2.2-1.4-3.2c-0.4-0.8-0.8-1.6-1.3-2.3c-0.3-0.5-0.8-1-1.3-1.3
			c-1-0.7-2.1-1-3.3-0.7c-0.9,0.2-1.7,0.5-2.5,1c-1.9,1.3-4.1,1.9-6.3,2.4c-2,0.4-3.9,0.7-5.9,0.9c-4.4,0.4-8.8,0.6-13.2,0.2
			c-1.6-0.2-3.1-0.2-4.7-0.5c-1.5-0.3-2.7-0.8-3.8-1.9c-1.4-1.4-2.8-2.8-4-4.4c-0.9-1.3-2.3-2.1-3.8-2.7c-0.6-0.2-1.2-0.3-1.8-0.2
			c-0.6,0.1-1.2,0.1-1.8,0.2c-0.8,0-1.5,0.1-2.3,0.1c-1.3,0-2.6-0.2-3.8-0.8c-0.2-0.1-0.5-0.2-0.7-0.2c-0.6,0.6-0.7,1.2-1,1.9
			c-2,4.8-4.3,9.5-7,14c-13.8,22.9-35.6,39.3-60.1,46.6c-4.8,1.4-9.6,2.5-14.5,3.2c-5.9,0.9-11.9,1.2-17.9,1
			c-23.9-0.7-45.2-8.7-63.7-23.8c-15-12.3-25.7-27.7-32.2-45.9c-0.1-0.3-0.2-0.7-0.4-1c-0.6-1.4-2.2-2.1-3.6-1.3
			c-0.6,0.3-1.2,0.8-1.7,1.1c-1.1,0.7-2.2,1.1-3.5,1.2c-0.5,0-1,0-1.4-0.3c-0.1-0.1-0.2-0.1-0.4-0.2c-1.1-0.6-2.1-0.5-3.1,0.2
			c-0.7,0.5-1.4,1.1-2,1.7c-1.3,1.4-2.6,2.8-3.9,4.3c-0.5,0.6-1.1,1.2-1.6,1.9c-0.7,1-1.5,1.6-2.6,1.9c-0.8,0.3-1.7,0.6-2.5,0.9
			c-1.1,0.3-2.2,0.4-3.3,0.4c-3.3-0.1-6.6-0.4-9.9-0.9c-2.5-0.3-5.1-0.6-7.6-1c-2.9-0.4-5.7-0.9-8.6-1.4c-1.1-0.2-2.1-0.5-3.2-0.9
			c-1.3-0.4-2.7-0.7-4.1-0.6c-1,0-2,0.3-3,0.6c-0.8,0.2-1.5,0.7-2,1.4c-0.4,0.5-0.8,1.1-1.2,1.7c-0.4,0.5-0.8,0.9-1.4,1.2
			c-1.6,0.6-3.3,1-5,0.7c-4.4-0.7-8.1-2.5-11-5.9c-1.6-1.8-3.2-3.6-4.8-5.4c-2.5-2.9-5.6-4.3-9.3-4.9c-1.5-0.2-3,0.1-4.5,0.6
			c-1.3,0.4-2.6,1-3.8,1.6c-1.8,1-3.5,2.1-5.2,3.3c-2.5,1.9-5.1,3.7-7.7,5.6c-1.5,1.1-3.1,2.1-4.7,2.9c-1,0.5-2,0.9-3.1,1
			c-0.3,0-0.5,0.1-0.8,0c-1.2-0.1-1.9-0.7-2.2-1.9c-0.3-1.4-0.2-2.8,0.2-4.1c0.3-1.3,0.8-2.5,1.3-3.7c0.8-2.1,1.8-4,2.9-5.9
			c1.6-2.8,3.3-5.6,5-8.3c5-7.5,10-15,15.1-22.4c12.1-17.6,24.3-35.2,36.5-52.8c0.4-0.5,0.7-1,1.1-1.5c1.5-0.1,2.9,0,4.3,0.2
			c4.1,0.7,8.2,1.7,12.2,2.9c6.5,2,12.9,4.4,19.2,7c9.8,4.1,19.3,8.7,28.7,13.5c1.1,0.6,2.2,1.1,3.3,1.7c0.4,0.2,0.7,0.3,1.1,0.5
			c0.1-0.2,0.3-0.3,0.4-0.5c0.5-1.6,1-3.1,1.6-4.7c9.2-26.4,29.4-49.2,56.8-61.2c7.5-3.3,15.3-5.7,23.4-7.1c3-0.5,6-0.9,9-1.2
			c4.9-0.5,9.9-0.5,14.8-0.3c2.6,0.1,5.2,0.4,7.8,0.7c3.8,0.5,7.6,1.2,11.4,2.1c11.6,2.7,22.3,7.4,32.3,13.8
			c20.3,13.1,36.5,33.6,43.9,59.2c0.7,2.4,1.2,4.8,1.8,7.2c0.1,0.3,0.1,0.6,0.2,0.8c0.1,0.2,0.3,0.3,0.5,0.4c0,0,0.1,0,0.2,0
			c2.1,0.2,1.5,0.6,3.4-0.8c5.3-3.9,10.6-7.8,16-11.7c4.6-3.3,9.2-6.5,14-9.5c3.3-2.1,6.7-4.1,10.2-5.8c2-1,4-1.8,6.1-2.5
			c1.8-0.6,3.6-1,5.4-1.2c1.1-0.1,2.1,0.1,3,0.5c1.7,0.7,3.2,1.8,4.5,3.3c1.2,1.4,2.2,2.8,3.1,4.4c0.8,1.4,1.6,2.9,2.4,4.3
			c0.7,1.2,1.4,2.4,2.1,3.5c0.9,1.3,1.8,2.6,3,3.7c0.5,0.5,1,1.1,1.5,1.7c3.2,4.2,6.3,8.5,9.3,12.9c6.9,10.2,13.4,20.6,19.4,31.4
			c1.6,3,3.2,5.9,4.6,9c0.6,1.4,1.3,2.8,1.8,4.2c1.5,3.9,2.9,7.7,4.3,11.6c0.3,0.8,0.6,1.7,0.8,2.6c0,0.2,0.2,0.3,0.3,0.5
			C651.4,341.9,651.4,343.3,651.4,344.6z M514.5,278.3C514.5,278.3,514.5,278.4,514.5,278.3c1.9,0,3.9,0.1,5.8,0
			c1.4,0,2.8-0.1,4.1-0.1c0.3,0,0.5-0.1,0.8-0.1c0.1,0,0.2-0.2,0.2-0.3c0-0.3,0-0.7-0.1-1c-0.7-2.9-1.5-5.9-2.5-8.7
			c-5.9-17-15.8-31.2-29.7-42.7c-10.6-8.7-22.6-14.9-35.9-18.4c-4.3-1.1-8.7-2-13.2-2.5c-3.1-0.4-6.3-0.6-9.5-0.7
			c-5.4-0.1-10.7,0.3-16,1.1c-6.4,1-12.7,2.6-18.7,4.8c-24.7,9.2-45,28.6-55.1,53.8c-4,10.1-6.2,20.5-6.7,31.3
			c-0.2,5.2,0,10.3,0.6,15.4c0.7,5.8,1.9,11.4,3.7,16.9c5.2,16.2,14,30.1,26.6,41.6c16.9,15.3,36.8,23.5,59.5,24.8
			c5.9,0.3,11.8,0,17.7-0.8c5-0.7,10-1.8,14.9-3.3c29.3-9.2,52-31.7,61.7-60.1c0.8-2.3,1.4-4.6,2.1-6.9c0.1-0.5,0.2-0.9,0.3-1.4
			c0-0.3-0.2-0.5-0.5-0.5c-0.3,0-0.5,0-0.8,0c-6.1,0.1-12.3,0.1-18.4,0.2c-2.3,0-1.9-0.2-2.7,2c-3.8,10.8-9.7,20.4-17.9,28.4
			c-14.1,13.7-31,20.7-50.7,21.1c-3.2,0.1-6.5-0.2-9.7-0.6c-3.9-0.5-7.7-1.3-11.5-2.4c-17.6-5.4-31.4-15.9-41.3-31.4
			c-6.3-9.9-9.9-20.7-10.9-32.3c-0.4-5-0.4-10,0.2-15c0.4-3.5,1-6.9,1.9-10.3c4.3-15.7,12.7-28.7,25.5-38.8
			c13.2-10.5,28.4-15.7,45.3-15.8c4,0,8,0.3,11.9,1c5.7,1,11.3,2.6,16.6,4.8c19.3,8.2,34.3,24.6,40.9,44.6c0.2,0.6,0.4,1.2,0.6,1.8
			c0.1,0.3,0.3,0.4,0.6,0.5c0.6,0,1.2,0.1,1.9,0.1C509,278.2,511.8,278.3,514.5,278.3z M331.2,274.2c-0.6-0.6-1.3-0.8-1.9-1
			c-5.8-2.3-11.6-4.6-17.5-6.8c-8.3-3.2-16.7-6.5-25.1-9.5c-2.3-0.8-4.7-1.6-7-2.3c-2.2-0.7-4.4-1.2-6.5-1.9
			c-0.4-0.1-0.8-0.2-1.2-0.3c-1-0.2-1.8,0.1-2.4,0.8c-0.3,0.3-0.5,0.6-0.8,0.9c-4.8,5.6-9.4,11.3-14,17.1
			c-7.1,9-13.9,18.1-20.2,27.6c-2.7,4-5.2,8.1-7.8,12.1c-2.7,4.1-5.3,8.2-7.9,12.3c-0.8,1.3-1.6,2.7-2.4,4.1
			c-0.4,0.7-0.6,1.4-0.9,2.1c-0.2,0.6,0.4,1.3,1,1.1c0.3-0.1,0.6-0.1,0.8-0.2c0.6-0.4,1.2-0.7,1.7-1.2c0.8-0.6,1.6-1.3,2.3-2
			c1.6-1.5,3.2-3,4.8-4.5c1.6-1.5,3.4-2.5,5.4-3.3c0.4-0.2,0.9-0.4,1.4-0.4c1.2,0,2.1-0.5,2.9-1.3c0.8-0.8,1.7-1.6,2.6-2.4
			c2.7-2.7,5-5.7,7-8.9c1-1.7,2.4-3,3.8-4.3c0.5-0.5,1.1-0.8,1.8-1c0.4-0.1,0.7,0,1,0.2c0.3,0.3,0.6,0.6,0.6,1
			c0.1,0.8,0.1,1.7-0.1,2.5c-0.2,0.9-0.6,1.8-1,2.7c-1.6,3.1-3.5,6.1-5.7,8.8c-0.5,0.6-1,1.3-1.4,2.1c-0.7,1.5-0.7,3.1,0.1,4.6
			c0.2,0.4,0.4,0.7,0.6,1.1c2.1,3.5,4.4,6.8,7,9.9c0.9,1.1,2,2.1,3,3.2c0.6,0.6,1.3,1.2,2.2,1.6c1.4,0.7,2.8,0.3,3.5-1.1
			c0.3-0.5,0.4-1,0.5-1.6c0.2-1.1,0.3-2.2,0.3-3.3c0-2.5,0.5-4.9,1.2-7.3c1.4-4.8,3-9.6,4.6-14.3c0.4-1.1,0.8-2.2,1.3-3.2
			c0.3-0.6,0.6-1.1,1-1.5c0.2-0.3,0.6-0.6,1-0.7c0.3-0.1,0.6,0,0.8,0.2c0.2,0.2,0.4,0.4,0.4,0.7c0.3,0.9,0.4,1.9,0.3,2.9
			c-0.1,1.8-0.2,3.6-0.5,5.3c-0.4,2.4-0.8,4.9-1.2,7.3c-0.2,1.3-0.2,2.6-0.2,3.9c0,0.6,0.2,1.2,0.4,1.8c0.1,0.3,0.3,0.6,0.6,0.9
			c0.5,0.5,1.1,0.6,1.6,0.2c1.2-0.9,2.1-2,2.6-3.4c0.2-0.4,0.3-0.9,0.5-1.3c0.1-0.2,0.5-0.2,0.7,0c0.4,0.5,0.6,1.1,0.6,1.7
			c0.1,1.4,0.2,2.7,0.4,4.1c0.1,0.7,0.2,1.5,0.4,2.2c0.4,1.4,1.5,2.3,2.8,2.8c1,0.4,1.9,0.1,2.6-0.8c0.3-0.4,0.6-0.9,0.8-1.4
			c0.5-1.1,0.7-2.4,0.7-3.6c0.1-1.3,0-2.6-0.2-3.9c-0.3-1.8,0.3-3.4,1.2-4.9c0.2-0.3,0.4-0.5,0.7-0.8c0.6-0.6,1.6-0.5,2.2,0.1
			c0.5,0.5,0.8,1.1,1.1,1.7c0.3,0.8,0.6,1.7,0.9,2.5c0.4,1.4,0.8,2.9,1.2,4.4c0.3,1.1,0.7,2.1,1.2,3.1c0.7,1.4,1.7,2.5,3,3.3
			c0.5,0.3,1.1,0.7,1.6,0.9c1.8,0.8,3.6,1.7,5.4,2.5c0.2,0.1,0.4,0.1,0.6,0.2c0.8,0.2,1.5-0.3,1.8-1.1c0.1-0.3,0.2-0.7,0.2-1
			c0-1.2-0.1-2.3-0.2-3.5c-0.2-1.8-0.4-3.7-0.6-5.5c-0.1-1.1-0.1-2.2-0.1-3.3c0-1.7,0.7-3,1.8-4.3c0.1-0.1,0.2-0.2,0.3-0.3
			c0.5-0.3,1-0.4,1.6-0.1c0.4,0.2,0.7,0.4,1,0.7c0.5,0.5,0.9,1,1.3,1.6c0.4,0.6,0.9,1,1.6,1.3c1.3,0.5,2.6,0.9,4,1
			c2.9,0.3,5.8,0,8.6-0.6c0.5-0.1,0.9-0.3,1.3-0.5c1.3-1,2.5-2.1,3.3-3.6c0.3-0.5,0.4-1,0.3-1.6c-0.2-0.8-0.3-1.6-0.4-2.4
			c-0.6-3.8-1-7.6-1.1-11.5c-0.1-4.9-0.1-9.8,0.4-14.6c0.3-2.7,0.6-5.5,1.1-8.2C330.4,278.5,330.8,276.4,331.2,274.2z M512.5,309.8
			c8.6,0.2,14.7,0,20.9-0.3c1.4-0.1,2.9-0.3,4.3-0.4c1.6-0.2,2.9-0.8,3.9-2c0.4-0.4,0.7-0.8,1.1-1.3c0.8-1,1.4-2,2-3.1
			c1.1-2.2,1-1.8,1.1-4.5c0-1.1-0.1-2.2-0.5-3.2c-0.6-1.9-1.8-3.2-3.6-4c-0.8-0.3-1.6-0.5-2.4-0.7c-2-0.4-4.1-0.7-6.1-0.8
			c-3.5-0.2-7-0.3-10.5-0.2c-2.6,0-5.2,0.1-7.8,0.1c-5.7,0-11.4,0-17.1,0c-0.6,0-1.1,0-1.6,0c-0.4,0-0.6-0.2-0.7-0.6
			c-0.1-0.5-0.2-0.9-0.3-1.4c-0.5-2.8-1.2-5.5-2.1-8.2c-6.5-19.4-22.8-35.9-45.1-41.1c-2.3-0.5-4.6-1-6.9-0.9
			c-0.8,0-1.7-0.1-2.5-0.1c-1.5,0-3,0.1-4.5,0.1c-1,0-1.9,0.3-2.8,0.5c-0.5,0.1-1,0.4-1.5,0.6c-0.9,0.5-1.4,1.3-1.5,2.3
			c0,0.5,0,1-0.1,1.4c0,1,0.3,1.7,1.1,2.3c1,0.7,2,1.5,3,2.2c1.5,1,3,1.9,4.5,2.9c1.2,0.8,2.4,1.6,3.5,2.5c1.6,1.3,2.9,2.9,4,4.7
			c1.4,2.4,2.1,5.1,1.9,7.9c-0.3,4.5-3,8-7.3,9.2c-1.8,0.5-3.6,0.8-5.5,0.8c-3,0.1-5.9-0.3-8.8-0.8c-3.3-0.6-6.6-1.4-9.7-2.7
			c-0.9-0.4-1.8-0.7-2.8-0.8c-0.1,0-0.2,0-0.2,0.1c0,0.1-0.1,0.3,0,0.4c0.1,0.2,0.2,0.3,0.3,0.5c2.3,2.8,4.5,5.6,6.8,8.3
			c0.3,0.3,0.5,0.6,0.8,0.9c0.7,0.7,1.6,0.8,2.7,0.4c0.3-0.1,0.6-0.4,0.9-0.6c0.6-0.4,1.1-0.8,1.7-1.2c0.8-0.6,1.8-1,2.8-1.2
			c0.8-0.2,1.6-0.3,2.5-0.3c2.1,0,4.1-0.1,6.2-0.2c0.7,0,1.4,0,2.1,0.1c2.5,0.2,4.9,0.9,7,2.3c1.5,1,2.9,2.1,4.3,3.2
			c2.5,2.1,4.2,4.7,5.1,7.8c0.4,1.3,0.6,2.7,0.7,4.1c0.1,2.2,0,4.4-0.1,6.6c-0.1,1.7-0.4,3.4-0.9,5.1c-0.9,3,0.2,5.5,1.9,7.9
			c0,0.1,0.1,0.1,0.1,0.1c2.1,2.2,4.2,4.3,6.4,6.5c0.3,0.3,0.6,0.6,0.8,0.9c1.4,2.1,2.4,4.5,2.8,7c0.2,1.8,0,3.6-0.9,5.2
			c-0.7,1.4-1.9,2.4-3.4,2.8c-0.8,0.2-1.6,0.3-2.4,0.4c-1.7,0.1-3.3-0.2-4.9-0.6c-2.5-0.7-4.8-1.6-7-2.9c-0.7-0.4-1.4-0.8-2.2-1.1
			c-2.6-0.9-5.2-1.3-7.9-1c-1,0.1-1.9,0.3-2.8,0.6c-0.8,0.3-1.4,0.8-1.8,1.6c-0.2,0.5-0.4,1-0.5,1.6c-0.2,1.3,0.1,2.5,0.8,3.5
			c1.3,2.1,3,3.7,5.2,4.8c0.8,0.4,1.6,0.8,2.4,1.2c0.8,0.5,1.6,0.8,2.5,1c1,0.1,1.8,0.6,2.6,1.1c3.4,2.3,5.8,5.4,7.1,9.4
			c0.1,0.4,0.2,0.8,0.4,1.2c0.1,0.3,0.4,0.4,0.6,0.4c0.3-0.1,0.7-0.2,1-0.3c6.8-2.5,13-6,18.5-10.7c10.9-9.2,17.9-20.7,21-34.6
			c0.2-0.7,0.3-1.3,0.5-2c0.1-0.3,0.3-0.5,0.6-0.5c0.6-0.1,1.2-0.1,1.9-0.1C503.3,309.7,509.2,309.8,512.5,309.8z M639.2,332.6
			c-0.1-1.1-0.1-2.2-0.4-3.2c-0.3-1.3-0.8-2.6-1.4-3.9c-2.7-5.4-5.3-10.7-8-16.1c-0.5-1.1-1.1-2.1-1.8-3
			c-6.3-9.1-12.6-18.2-18.8-27.4c-0.6-0.9-1.2-1.7-1.9-2.4c-2.7-3-5.3-5.9-8-8.9c-1.7-1.8-3.4-3.6-5.2-5.4c-1.1-1.1-2.2-2.1-3.4-3
			c-0.6-0.5-1.2-0.9-1.9-1.2c-0.5-0.3-1.1-0.5-1.8-0.4c-1.1,0.1-2.2,0.2-3.2,0.8c-0.6,0.3-1.2,0.6-1.8,1c-2.2,1.1-4.4,2.3-6.6,3.3
			c-2.7,1.3-5.4,2.7-8,4.3c-6.9,4.2-13.5,8.7-20.2,13.3c-0.2,0.2-0.4,0.3-0.6,0.5c-0.2,0.2-0.2,0.7,0,0.9c0.7,0.6,1.5,1.2,2.3,1.8
			c1.4,1.2,2.8,2.5,3.9,4c1.5,2,2.6,4.2,3.1,6.7c0.8,4,0.7,7.9-0.4,11.8c-0.8,2.9-2.3,5.5-4.5,7.6c-2.3,2.2-5,3.9-8,5
			c-1.8,0.6-3.5,1.1-5.4,1.3c-0.3,0-0.7,0.1-1,0.1c-0.7,0-0.9,0.5-1.1,1.1c-0.4,1.9-0.9,3.7-1.4,5.6c0,0.1,0,0.1,0,0.2
			c0,0.3,0.3,0.7,0.6,0.7c0.4,0,0.8,0,1.2,0c0.7-0.1,1.5-0.3,2.2-0.4c0.9-0.2,1.8-0.4,2.6-0.5c2-0.3,3.8,0,5.5,1.1
			c1,0.6,1.9,1.3,2.8,2.1c1.1,1,2.1,2.2,3,3.4c0.7,0.9,1.4,1.7,2.2,2.5c1.1,1.2,2.5,1.9,4.2,1.7c0.1,0,0.1,0,0.2,0
			c1.1,0.2,2-0.1,3-0.6c1-0.5,2.1-1.1,3.1-1.6c0.8-0.4,1.6-0.7,2.5-1c0.7-0.3,1.5-0.4,2.2-0.4c1.1,0,2,0.6,2.4,1.6
			c0.3,0.8,0.6,1.5,0.9,2.3c0.3,0.8,0.6,1.5,1,2.3c0.5,1,1.2,1.2,2.3,0.9c0.4-0.1,0.7-0.4,1-0.6c0.4-0.4,0.7-0.9,1-1.3
			c0.5-0.7,0.9-1.4,1.4-2c1.3-1.7,3-2.8,5-3.4c1.3-0.4,2.5-0.4,3.8,0.1c0.8,0.3,1.7,0.5,2.6,0.7c0.3,0.1,0.7,0.1,1,0
			c0.6-0.1,1-0.4,1.2-1c0.1-0.3,0.2-0.7,0.2-1c0.1-1.5,0.1-3-0.1-4.5c-0.7-4.2-1.5-8.4-2.2-12.6c-0.2-1.1-0.4-2.2-0.5-3.3
			c0-0.1,0.1-0.2,0.2-0.3c0,0,0.1,0,0.2,0c0.2,0.1,0.3,0.2,0.5,0.4c2.9,2.9,5.9,5.8,8.7,8.8c1.3,1.3,2.4,2.6,3.6,4
			c0.6,0.7,1.2,1.5,1.6,2.4c0.9,1.6,0.6,3.2-0.8,4.5c-0.2,0.2-0.5,0.4-0.8,0.7c-1.3,1.1-2.5,2.3-3.6,3.7c-0.6,0.7-1.1,1.4-1.5,2.2
			c-0.3,0.5-0.5,1.1-0.7,1.7c-0.2,0.7,0,1.4,0.5,1.9c1.2,1.2,2.5,1.9,4.2,1.9c1.4,0,2.9,0.1,4.3,0c0.6,0,1.2-0.1,1.8-0.2
			c4.4-0.7,8.7-2,12.9-3.6c1.5-0.6,3-1.3,4.4-2.2c2.7-1.8,5.6-3.1,8.6-4.5c0.1-0.1,0.3-0.1,0.4-0.1c0.2-0.1,0.4-0.1,0.6-0.1
			c0.5-0.1,0.8,0.1,1,0.6c0.1,0.3,0.1,0.7,0.2,1c0.1,0.3,0.4,0.6,0.6,0.8c0.3,0.3,0.8,0.2,1.1-0.1c0.3-0.3,0.5-0.7,0.5-1.1
			C639.1,333.6,639.1,333,639.2,332.6z M450.5,317.9c-0.3,0-0.7,0-1.1,0c-2.1,0.3-4.1,0.7-5.9,1.8c-1.8,1-3.7,1.9-5.7,2.4
			c-3.3,0.9-6.5,0.9-9.7-0.2c-2.5-0.8-4.6-2.2-6.3-4.1c-2.7-2.9-4.8-6.2-6.1-9.9c-0.7-2-1.2-4.1-1.6-6.2c-0.3-1.5-0.5-3-0.3-4.5
			c0.2-1.9,0.4-3.7,1-5.5c0.2-0.5,0.3-1,0.5-1.6c0.2-0.5,0.1-0.8-0.3-1.1c-1.6-1.1-2.9-2.5-4.1-4c-2.2-2.7-4.4-5.4-6.6-8.2
			c-0.4-0.5-0.8-1.1-1.2-1.6c-0.2-0.3-0.4-0.6-0.5-0.9c-0.9-1.9-1.3-3.9-1.1-6c0.2-3.2,2.1-6.5,5.9-7.6c1.2-0.4,2.4-0.4,3.7-0.4
			c2.6,0.1,5,0.8,7.4,1.7c0.9,0.4,1.8,0.7,2.7,1c1.3,0.4,2.5,0.7,3.8,0.9c2.4,0.5,4.8,0.8,7.2,0.8c1.1,0,2.2-0.1,3.3-0.2
			c0.8-0.1,1.2-0.7,1-1.5c0-0.2-0.1-0.4-0.2-0.6c-0.4-1.4-1.3-2.4-2.3-3.3c-0.7-0.6-1.5-1.2-2.3-1.7c-1.4-0.9-2.9-1.8-4.3-2.8
			c-1.3-0.8-2.5-1.7-3.7-2.7c-1.1-0.9-2.1-1.9-3-3.1c-1-1.4-1.7-3-1.9-4.7c-0.3-1.7-0.3-3.4-0.1-5.1c0.1-0.6-0.2-0.8-0.7-0.7
			c-1,0.3-2,0.5-3,0.9c-25.6,8.2-42.7,31.9-43.3,57.7c-0.1,6.2,0.5,12.4,2.1,18.4c7.2,26.4,30.7,44.7,56.7,46c4,0.2,8,0,11.9-0.5
			c1.7-0.2,1.7-0.3,1.5-1.9c-0.1-0.4-0.1-0.8-0.2-1.2c-0.2-1.8-1-3.3-2.3-4.5c-1.1-1.1-2.3-2.1-3.8-2.8c-0.6-0.3-1.2-0.7-1.8-1
			c-0.6-0.3-1.1-0.5-1.7-0.7c-1.8-0.6-3.5-1.3-5.2-2c-1.1-0.5-2.1-1-3-1.7c-1.1-0.8-2.1-1.8-2.8-3c-0.3-0.5-0.6-1.1-0.7-1.7
			c-0.4-1.9-0.4-3.8,0.1-5.7c1.1-3.6,3.2-6.4,6.6-8c3.3-1.6,6.8-2.2,10.4-2c2.1,0.1,4.1,0.5,6.1,1.1c2,0.5,3.9,1.3,5.7,2.4
			c1.8,1.1,3.7,1.8,5.7,2.4c0.9,0.2,1.8,0.3,2.7,0.3c0.3,0,0.6-0.3,0.6-0.7c-0.1-1.9-0.8-3.6-2.1-5c-1.4-1.5-2.9-3-4.3-4.5
			C452.5,319.7,451.6,318.7,450.5,317.9z M445.8,297.4C445.8,297.4,445.8,297.4,445.8,297.4c-0.1-0.7,0-1.4-0.1-2.1
			c-0.1-2.2-1.1-4.1-2.9-5.5c-0.4-0.3-0.8-0.6-1.2-0.9c-0.6-0.5-1.2-0.7-1.9-0.8c-1.9-0.3-3.8-0.6-5.7-0.9c-0.5-0.1-1,0-1.4,0.1
			c-1.7,0.6-3.4,1.2-5.1,1.8c-0.3,0.1-0.6,0.3-0.8,0.6c-0.5,0.5-1,1.1-1.5,1.7c-0.2,0.3-0.4,0.6-0.6,0.9c-1.2,2.5-1.7,5.1-1.2,7.8
			c0.2,1.1,0.5,2.3,0.8,3.4c0.7,2.7,2.2,5,4,7.1c0.5,0.6,1.2,1.2,1.9,1.6c0.9,0.5,1.9,0.8,3,0.7c0.7,0,1.4-0.1,2-0.3
			c4.6-1.4,7.9-4.3,9.7-8.8c0.2-0.6,0.4-1.2,0.5-1.8C445.6,300.6,445.7,299,445.8,297.4z"/>
		<path class="st0" d="M418,188.6c-2.6,0-5.6,0-8.7-0.1c-3.8-0.2-7.6-0.4-11.3-1.2c-2.1-0.4-4.2-0.9-6.2-1.7
			c-1.6-0.6-3.1-1.4-4.5-2.5c-1.5-1.2-2.4-2.8-2.7-4.7c-0.5-2.6,0-4.9,1.7-7c0.7-0.8,1.4-1.5,2.2-2.2c1.4-1.2,2.9-2.3,4.5-3.3
			c2.2-1.4,4.5-2.7,6.9-3.8c2.4-1.1,5-1.8,7.7-2.1c2.1-0.2,4.1-0.3,6.2-0.3c1.7,0,3.3-0.1,5-0.1c2.8,0,5.6,0,8.4,0.3
			c2.3,0.3,4.6,0.5,7,0.8c2.5,0.3,5,0.9,7.5,1.4c4.8,1,9.5,2.2,14.1,3.7c1.8,0.6,3.5,1.2,5.2,2.1c1.6,0.8,3.2,1.7,4.5,2.9
			c0.7,0.6,1.3,1.2,1.9,1.9c0.3,0.3,0.6,0.8,0.8,1.2c0.8,1.6,0.8,2.3-0.5,3.7c-0.8,0.8-1.6,1.5-2.6,2.1c-1.3,0.8-2.6,1.5-4,2
			c-3.3,1.4-6.7,2.3-10.2,3.2c-3,0.8-6,1.4-9.1,1.9c-1.2,0.2-2.3,0.4-3.5,0.5c-2,0.2-4,0.4-6,0.5c-3.2,0.2-6.3,0.4-9.5,0.6
			C421.5,188.5,420,188.5,418,188.6z M433.5,182C433.5,182,433.5,181.9,433.5,182c3.6-0.1,7.3-0.1,10.9-0.1c3.6,0,7.1-0.2,10.7-0.4
			c1.1-0.1,2.2-0.3,3.3-0.5c0.8-0.2,1.6-0.4,2.3-0.9c0.5-0.3,0.8-0.8,0.8-1.4c0.1-1.2-0.3-2.2-1.2-3c-1.1-1-2.3-1.9-3.6-2.7
			c-6.8-4.2-14.2-6.6-22.1-7.1c-3.8-0.3-7.7-0.4-11.5-0.6c-0.8,0-1.5,0-2.3-0.1c-3-0.2-5.9-0.2-8.9-0.2c-1.7,0-3.4,0.1-5.1,0.3
			c-0.4,0-0.8,0.1-1.2,0.2c-2.1,0.6-4.2,1.3-6.3,1.9c-1.4,0.4-2.7,1.1-3.8,2c-1.8,1.3-3.3,2.9-4.7,4.6c-0.1,0.1-0.2,0.2-0.2,0.3
			c-0.5,0.7-0.5,1.4,0,2.1c0.4,0.7,1.1,1.2,1.8,1.6c1.3,0.8,2.7,1.3,4.2,1.6c1.1,0.2,2.2,0.4,3.3,0.5c1.7,0.2,3.4,0.4,5.1,0.5
			c3,0.2,6,0.6,9,0.7C420.5,181.7,427,181.8,433.5,182z"/>
		<path class="st1" d="M514.5,278.3c-2.8-0.1-5.5-0.1-8.3-0.2c-0.6,0-1.2-0.1-1.9-0.1c-0.3,0-0.5-0.2-0.6-0.5
			c-0.2-0.6-0.4-1.2-0.6-1.8c-6.6-20-21.6-36.3-40.9-44.6c-5.3-2.3-10.9-3.9-16.6-4.8c-4-0.7-7.9-1-11.9-1
			c-16.9,0.1-32.1,5.3-45.3,15.8c-12.8,10.1-21.2,23.1-25.5,38.8c-0.9,3.4-1.5,6.8-1.9,10.3c-0.6,5-0.6,10-0.2,15
			c1,11.6,4.6,22.5,10.9,32.3c9.9,15.5,23.7,26,41.3,31.4c3.8,1.2,7.6,1.9,11.5,2.4c3.2,0.4,6.4,0.6,9.7,0.6
			c19.7-0.3,36.6-7.4,50.7-21.1c8.2-8,14.1-17.5,17.9-28.4c0.8-2.2,0.4-2,2.7-2c6.1-0.1,12.3-0.1,18.4-0.2c0.3,0,0.5,0,0.8,0
			c0.3,0,0.5,0.3,0.5,0.5c-0.1,0.5-0.1,1-0.3,1.4c-0.7,2.3-1.3,4.6-2.1,6.9c-9.7,28.4-32.5,50.9-61.7,60.1
			c-4.9,1.5-9.8,2.6-14.9,3.3c-5.9,0.8-11.8,1.1-17.7,0.8c-22.8-1.3-42.7-9.4-59.5-24.8c-12.6-11.4-21.4-25.4-26.6-41.6
			c-1.7-5.5-2.9-11.2-3.7-16.9c-0.6-5.1-0.9-10.3-0.6-15.4c0.5-10.8,2.7-21.3,6.7-31.3c10.1-25.2,30.4-44.6,55.1-53.8
			c6.1-2.3,12.3-3.9,18.7-4.8c5.3-0.8,10.7-1.2,16-1.1c3.2,0.1,6.3,0.3,9.5,0.7c4.4,0.5,8.8,1.3,13.2,2.5
			c13.3,3.5,25.3,9.7,35.9,18.4c13.9,11.4,23.8,25.7,29.7,42.7c1,2.9,1.8,5.8,2.5,8.7c0.1,0.3,0.1,0.7,0.1,1c0,0.1-0.1,0.3-0.2,0.3
			c-0.3,0.1-0.5,0.1-0.8,0.1c-1.4,0-2.8,0.1-4.1,0.1C518.4,278.4,516.4,278.4,514.5,278.3C514.5,278.4,514.5,278.3,514.5,278.3z"/>
		<path class="st1" d="M331.2,274.2c-0.4,2.2-0.9,4.3-1.2,6.4c-0.5,2.7-0.8,5.4-1.1,8.2c-0.5,4.9-0.5,9.8-0.4,14.6
			c0.1,3.9,0.5,7.7,1.1,11.5c0.1,0.8,0.2,1.6,0.4,2.4c0.1,0.6,0,1.1-0.3,1.6c-0.8,1.5-2,2.6-3.3,3.6c-0.4,0.3-0.9,0.4-1.3,0.5
			c-2.8,0.6-5.7,0.8-8.6,0.6c-1.4-0.1-2.7-0.5-4-1c-0.6-0.3-1.2-0.6-1.6-1.3c-0.4-0.6-0.8-1.1-1.3-1.6c-0.3-0.3-0.6-0.5-1-0.7
			c-0.5-0.3-1.1-0.2-1.6,0.1c-0.1,0.1-0.2,0.2-0.3,0.3c-1.1,1.2-1.8,2.6-1.8,4.3c0,1.1,0,2.2,0.1,3.3c0.2,1.8,0.4,3.7,0.6,5.5
			c0.1,1.2,0.1,2.3,0.2,3.5c0,0.3-0.1,0.7-0.2,1c-0.2,0.8-1,1.2-1.8,1.1c-0.2-0.1-0.4-0.1-0.6-0.2c-1.8-0.8-3.6-1.6-5.4-2.5
			c-0.6-0.3-1.1-0.6-1.6-0.9c-1.3-0.8-2.3-1.9-3-3.3c-0.5-1-0.9-2-1.2-3.1c-0.4-1.5-0.8-2.9-1.2-4.4c-0.3-0.9-0.6-1.7-0.9-2.5
			c-0.3-0.6-0.6-1.2-1.1-1.7c-0.6-0.6-1.6-0.7-2.2-0.1c-0.2,0.2-0.5,0.5-0.7,0.8c-0.9,1.5-1.4,3.1-1.2,4.9c0.2,1.3,0.3,2.6,0.2,3.9
			c-0.1,1.2-0.2,2.5-0.7,3.6c-0.2,0.5-0.5,1-0.8,1.4c-0.6,0.9-1.6,1.2-2.6,0.8c-1.3-0.5-2.3-1.4-2.8-2.8c-0.2-0.7-0.4-1.5-0.4-2.2
			c-0.2-1.4-0.3-2.7-0.4-4.1c0-0.6-0.2-1.2-0.6-1.7c-0.2-0.2-0.6-0.2-0.7,0c-0.2,0.4-0.3,0.9-0.5,1.3c-0.5,1.4-1.3,2.5-2.6,3.4
			c-0.6,0.4-1.2,0.4-1.6-0.2c-0.2-0.3-0.4-0.5-0.6-0.9c-0.3-0.6-0.4-1.2-0.4-1.8c-0.1-1.3-0.1-2.6,0.2-3.9c0.4-2.4,0.8-4.9,1.2-7.3
			c0.3-1.8,0.4-3.5,0.5-5.3c0.1-1-0.1-1.9-0.3-2.9c-0.1-0.2-0.3-0.5-0.4-0.7c-0.2-0.2-0.5-0.3-0.8-0.2c-0.4,0.1-0.8,0.4-1,0.7
			c-0.4,0.5-0.8,1-1,1.5c-0.5,1.1-1,2.1-1.3,3.2c-1.6,4.8-3.2,9.5-4.6,14.3c-0.7,2.4-1.2,4.8-1.2,7.3c0,1.1-0.1,2.2-0.3,3.3
			c-0.1,0.5-0.3,1.1-0.5,1.6c-0.7,1.3-2.2,1.8-3.5,1.1c-0.8-0.4-1.5-0.9-2.2-1.6c-1-1-2-2.1-3-3.2c-2.6-3.1-4.9-6.5-7-9.9
			c-0.2-0.3-0.4-0.7-0.6-1.1c-0.8-1.5-0.8-3-0.1-4.6c0.3-0.8,0.8-1.4,1.4-2.1c2.2-2.7,4.1-5.7,5.7-8.8c0.5-0.9,0.8-1.8,1-2.7
			c0.2-0.8,0.3-1.6,0.1-2.5c-0.1-0.4-0.3-0.8-0.6-1c-0.3-0.2-0.6-0.3-1-0.2c-0.7,0.2-1.3,0.6-1.8,1c-1.4,1.3-2.8,2.6-3.8,4.3
			c-1.9,3.3-4.3,6.3-7,8.9c-0.8,0.8-1.7,1.6-2.6,2.4c-0.8,0.8-1.7,1.3-2.9,1.3c-0.5,0-0.9,0.2-1.4,0.4c-2,0.8-3.9,1.8-5.4,3.3
			c-1.6,1.5-3.2,3-4.8,4.5c-0.8,0.7-1.5,1.4-2.3,2c-0.5,0.4-1.1,0.8-1.7,1.2c-0.2,0.1-0.5,0.2-0.8,0.2c-0.6,0.1-1.3-0.5-1-1.1
			c0.2-0.7,0.5-1.4,0.9-2.1c0.8-1.4,1.5-2.8,2.4-4.1c2.6-4.1,5.3-8.2,7.9-12.3c2.6-4,5.2-8.1,7.8-12.1c6.3-9.5,13.2-18.7,20.2-27.6
			c4.6-5.8,9.2-11.5,14-17.1c0.3-0.3,0.5-0.6,0.8-0.9c0.7-0.7,1.5-1,2.4-0.8c0.4,0.1,0.8,0.2,1.2,0.3c2.2,0.6,4.4,1.2,6.5,1.9
			c2.4,0.7,4.7,1.5,7,2.3c8.4,3,16.8,6.2,25.1,9.5c5.8,2.3,11.7,4.5,17.5,6.8C329.9,273.5,330.6,273.6,331.2,274.2z"/>
		<path class="st1" d="M512.5,309.8c-3.3,0-9.2-0.1-15-0.1c-0.6,0-1.2,0-1.9,0.1c-0.3,0-0.5,0.2-0.6,0.5c-0.2,0.7-0.3,1.3-0.5,2
			c-3.1,13.9-10.2,25.4-21,34.6c-5.5,4.7-11.7,8.2-18.5,10.7c-0.3,0.1-0.7,0.2-1,0.3c-0.2,0.1-0.6-0.1-0.6-0.4
			c-0.1-0.4-0.2-0.8-0.4-1.2c-1.3-3.9-3.7-7-7.1-9.4c-0.8-0.5-1.6-1-2.6-1.1c-0.9-0.1-1.7-0.5-2.5-1c-0.8-0.4-1.6-0.8-2.4-1.2
			c-2.2-1.1-3.9-2.7-5.2-4.8c-0.7-1.1-1-2.3-0.8-3.5c0.1-0.6,0.3-1.1,0.5-1.6c0.4-0.8,1-1.3,1.8-1.6c0.9-0.3,1.9-0.5,2.8-0.6
			c2.7-0.2,5.4,0.1,7.9,1c0.8,0.3,1.5,0.7,2.2,1.1c2.2,1.3,4.5,2.3,7,2.9c1.6,0.4,3.2,0.7,4.9,0.6c0.8,0,1.6-0.2,2.4-0.4
			c1.6-0.4,2.7-1.4,3.4-2.8c0.9-1.6,1.1-3.4,0.9-5.2c-0.3-2.6-1.3-4.9-2.8-7c-0.2-0.3-0.5-0.6-0.8-0.9c-2.1-2.2-4.2-4.3-6.4-6.5
			c0,0-0.1-0.1-0.1-0.1c-1.7-2.4-2.7-4.9-1.9-7.9c0.5-1.7,0.8-3.3,0.9-5.1c0.1-2.2,0.3-4.4,0.1-6.6c-0.1-1.4-0.3-2.7-0.7-4.1
			c-0.9-3.1-2.6-5.7-5.1-7.8c-1.4-1.1-2.8-2.2-4.3-3.2c-2.1-1.4-4.5-2.1-7-2.3c-0.7,0-1.4-0.1-2.1-0.1c-2.1,0.1-4.1,0.2-6.2,0.2
			c-0.8,0-1.6,0.2-2.5,0.3c-1,0.2-2,0.6-2.8,1.2c-0.6,0.4-1.1,0.8-1.7,1.2c-0.3,0.2-0.6,0.4-0.9,0.6c-1,0.4-2,0.3-2.7-0.4
			c-0.3-0.3-0.6-0.6-0.8-0.9c-2.3-2.8-4.5-5.6-6.8-8.3c-0.1-0.2-0.3-0.3-0.3-0.5c0-0.1,0-0.2,0-0.4c0,0,0.1-0.1,0.2-0.1
			c1,0.1,1.9,0.4,2.8,0.8c3.1,1.4,6.4,2.1,9.7,2.7c2.9,0.5,5.9,0.8,8.8,0.8c1.9,0,3.7-0.3,5.5-0.8c4.3-1.2,7-4.7,7.3-9.2
			c0.2-2.8-0.5-5.5-1.9-7.9c-1-1.8-2.3-3.4-4-4.7c-1.1-0.9-2.3-1.7-3.5-2.5c-1.5-1-3-1.9-4.5-2.9c-1-0.7-2-1.5-3-2.2
			c-0.8-0.6-1.1-1.4-1.1-2.3c0-0.5,0-1,0.1-1.4c0.1-1,0.6-1.8,1.5-2.3c0.5-0.3,1-0.5,1.5-0.6c0.9-0.3,1.9-0.5,2.8-0.5
			c1.5,0,3-0.1,4.5-0.1c0.8,0,1.6,0.1,2.5,0.1c2.4,0,4.7,0.4,6.9,0.9c22.3,5.3,38.6,21.7,45.1,41.1c0.9,2.7,1.6,5.4,2.1,8.2
			c0.1,0.5,0.2,0.9,0.3,1.4c0.1,0.4,0.3,0.6,0.7,0.6c0.6,0,1.1,0,1.6,0c5.7,0,11.4,0,17.1,0c2.6,0,5.2,0,7.8-0.1c3.5,0,7,0,10.5,0.2
			c2.1,0.1,4.1,0.4,6.1,0.8c0.8,0.2,1.6,0.4,2.4,0.7c1.8,0.7,3,2.1,3.6,4c0.4,1.1,0.5,2.1,0.5,3.2c0,2.7,0,2.3-1.1,4.5
			c-0.6,1.1-1.2,2.2-2,3.1c-0.3,0.4-0.7,0.8-1.1,1.3c-1.1,1.2-2.4,1.8-3.9,2c-1.4,0.2-2.9,0.4-4.3,0.4
			C527.3,309.8,521.2,310,512.5,309.8z"/>
		<path class="st1" d="M639.2,332.6c0,0.4-0.1,1-0.2,1.5c-0.1,0.4-0.3,0.8-0.5,1.1c-0.3,0.3-0.8,0.4-1.1,0.1
			c-0.2-0.2-0.5-0.5-0.6-0.8c-0.1-0.3-0.2-0.7-0.2-1c-0.1-0.4-0.5-0.7-1-0.6c-0.2,0-0.4,0.1-0.6,0.1c-0.1,0-0.3,0.1-0.4,0.1
			c-2.9,1.4-5.9,2.7-8.6,4.5c-1.4,0.9-2.9,1.7-4.4,2.2c-4.2,1.6-8.5,2.9-12.9,3.6c-0.6,0.1-1.2,0.2-1.8,0.2c-1.4,0-2.9,0-4.3,0
			c-1.7,0-3-0.8-4.2-1.9c-0.5-0.5-0.7-1.2-0.5-1.9c0.2-0.6,0.4-1.2,0.7-1.7c0.5-0.8,1-1.5,1.5-2.2c1.1-1.3,2.3-2.5,3.6-3.7
			c0.3-0.2,0.5-0.4,0.8-0.7c1.4-1.3,1.6-2.9,0.8-4.5c-0.5-0.8-1-1.7-1.6-2.4c-1.1-1.4-2.3-2.7-3.6-4c-2.9-3-5.8-5.9-8.7-8.8
			c-0.1-0.1-0.3-0.3-0.5-0.4c0,0-0.2-0.1-0.2,0c-0.1,0.1-0.2,0.2-0.2,0.3c0.2,1.1,0.3,2.2,0.5,3.3c0.7,4.2,1.5,8.4,2.2,12.6
			c0.3,1.5,0.3,3,0.1,4.5c0,0.3-0.1,0.7-0.2,1c-0.2,0.6-0.6,0.9-1.2,1c-0.3,0-0.7,0-1,0c-0.9-0.2-1.8-0.4-2.6-0.7
			c-1.3-0.5-2.5-0.4-3.8-0.1c-2,0.6-3.7,1.8-5,3.4c-0.5,0.6-0.9,1.4-1.4,2c-0.3,0.4-0.6,0.9-1,1.3c-0.3,0.3-0.7,0.5-1,0.6
			c-1.1,0.3-1.8,0.1-2.3-0.9c-0.4-0.7-0.7-1.5-1-2.3c-0.3-0.8-0.6-1.6-0.9-2.3c-0.5-1-1.3-1.6-2.4-1.6c-0.8,0-1.5,0.1-2.2,0.4
			c-0.8,0.3-1.7,0.7-2.5,1c-1.1,0.5-2.1,1-3.1,1.6c-0.9,0.5-1.9,0.8-3,0.6c-0.1,0-0.1,0-0.2,0c-1.7,0.2-3.1-0.5-4.2-1.7
			c-0.8-0.8-1.5-1.6-2.2-2.5c-1-1.2-1.9-2.3-3-3.4c-0.9-0.8-1.8-1.5-2.8-2.1c-1.7-1-3.6-1.4-5.5-1.1c-0.9,0.1-1.8,0.3-2.6,0.5
			c-0.7,0.1-1.5,0.3-2.2,0.4c-0.4,0.1-0.8,0-1.2,0c-0.4,0-0.7-0.4-0.6-0.7c0-0.1,0-0.1,0-0.2c0.5-1.9,0.9-3.7,1.4-5.6
			c0.1-0.6,0.4-1,1.1-1.1c0.3,0,0.7-0.1,1-0.1c1.9-0.2,3.6-0.7,5.4-1.3c3-1.1,5.7-2.8,8-5c2.2-2.1,3.6-4.6,4.5-7.6
			c1.1-3.9,1.3-7.9,0.4-11.8c-0.5-2.5-1.6-4.7-3.1-6.7c-1.1-1.5-2.5-2.8-3.9-4c-0.7-0.6-1.5-1.2-2.3-1.8c-0.3-0.2-0.3-0.7,0-0.9
			c0.2-0.2,0.4-0.4,0.6-0.5c6.6-4.6,13.3-9.1,20.2-13.3c2.6-1.6,5.2-3,8-4.3c2.2-1.1,4.4-2.2,6.6-3.3c0.6-0.3,1.2-0.6,1.8-1
			c1-0.6,2.1-0.7,3.2-0.8c0.6-0.1,1.2,0.1,1.8,0.4c0.7,0.4,1.3,0.8,1.9,1.2c1.2,1,2.3,2,3.4,3c1.7,1.7,3.5,3.5,5.2,5.4
			c2.7,2.9,5.4,5.9,8,8.9c0.7,0.8,1.3,1.6,1.9,2.4c6.3,9.1,12.5,18.3,18.8,27.4c0.7,1,1.2,2,1.8,3c2.6,5.4,5.3,10.7,8,16.1
			c0.6,1.2,1.1,2.5,1.4,3.9C639.1,330.4,639.1,331.4,639.2,332.6z"/>
		<path class="st2" d="M450.5,317.9c1.1,0.9,2,1.8,3,2.7c1.4,1.5,2.9,3,4.3,4.5c1.3,1.4,2.1,3.1,2.1,5c0,0.3-0.3,0.6-0.6,0.7
			c-0.9,0-1.8-0.1-2.7-0.3c-2-0.5-3.9-1.3-5.7-2.4c-1.8-1.1-3.7-1.8-5.7-2.4c-2-0.5-4-1-6.1-1.1c-3.6-0.2-7.1,0.4-10.4,2
			c-3.4,1.6-5.6,4.4-6.6,8c-0.6,1.9-0.5,3.8-0.1,5.7c0.1,0.6,0.4,1.2,0.7,1.7c0.7,1.2,1.7,2.2,2.8,3c1,0.7,2,1.2,3,1.7
			c1.7,0.8,3.4,1.4,5.2,2c0.6,0.2,1.1,0.5,1.7,0.7c0.6,0.3,1.2,0.7,1.8,1c1.5,0.6,2.7,1.6,3.8,2.8c1.3,1.2,2.1,2.7,2.3,4.5
			c0.1,0.4,0.1,0.8,0.2,1.2c0.2,1.6,0.2,1.7-1.5,1.9c-4,0.5-7.9,0.7-11.9,0.5c-26-1.3-49.5-19.6-56.7-46c-1.6-6-2.3-12.1-2.1-18.4
			c0.6-25.8,17.8-49.5,43.3-57.7c1-0.3,2-0.6,3-0.9c0.5-0.1,0.8,0.1,0.7,0.7c-0.2,1.7-0.2,3.4,0.1,5.1c0.3,1.7,0.9,3.3,1.9,4.7
			c0.8,1.2,1.8,2.3,3,3.1c1.2,0.9,2.4,1.8,3.7,2.7c1.4,1,2.9,1.8,4.3,2.8c0.8,0.5,1.6,1.1,2.3,1.7c1.1,0.9,1.9,2,2.3,3.3
			c0.1,0.2,0.1,0.4,0.2,0.6c0.2,0.8-0.2,1.4-1,1.5c-1.1,0.1-2.2,0.3-3.3,0.2c-2.4,0-4.8-0.3-7.2-0.8c-1.3-0.3-2.5-0.6-3.8-0.9
			c-0.9-0.3-1.8-0.6-2.7-1c-2.4-0.9-4.8-1.6-7.4-1.7c-1.2,0-2.5,0-3.7,0.4c-3.9,1.2-5.7,4.4-5.9,7.6c-0.1,2.1,0.3,4.1,1.1,6
			c0.1,0.3,0.3,0.6,0.5,0.9c0.4,0.6,0.8,1.1,1.2,1.6c2.2,2.7,4.4,5.4,6.6,8.2c1.2,1.5,2.5,2.9,4.1,4c0.4,0.3,0.5,0.6,0.3,1.1
			c-0.2,0.5-0.3,1-0.5,1.6c-0.6,1.8-0.8,3.6-1,5.5c-0.1,1.5,0.1,3,0.3,4.5c0.4,2.1,0.9,4.2,1.6,6.2c1.3,3.8,3.4,7,6.1,9.9
			c1.8,1.9,3.9,3.3,6.3,4.1c3.2,1.1,6.5,1.1,9.7,0.2c2-0.6,3.9-1.4,5.7-2.4c1.8-1.1,3.8-1.5,5.9-1.8
			C449.8,317.8,450.2,317.9,450.5,317.9z"/>
		<path class="st2" d="M445.8,297.4c-0.1,1.6-0.2,3.1-0.4,4.7c-0.1,0.6-0.2,1.2-0.5,1.8c-1.7,4.6-5.1,7.4-9.7,8.8
			c-0.6,0.2-1.3,0.3-2,0.3c-1,0-2-0.2-3-0.7c-0.7-0.4-1.3-0.9-1.9-1.6c-1.8-2.1-3.3-4.4-4-7.1c-0.3-1.1-0.6-2.3-0.8-3.4
			c-0.5-2.7,0-5.3,1.2-7.8c0.2-0.3,0.3-0.6,0.6-0.9c0.5-0.6,1-1.2,1.5-1.7c0.2-0.2,0.5-0.5,0.8-0.6c1.7-0.6,3.4-1.2,5.1-1.8
			c0.5-0.2,0.9-0.2,1.4-0.1c1.9,0.3,3.8,0.6,5.7,0.9c0.7,0.1,1.3,0.3,1.9,0.8c0.4,0.3,0.8,0.6,1.2,0.9c1.8,1.4,2.7,3.2,2.9,5.5
			C445.8,296,445.8,296.7,445.8,297.4C445.8,297.4,445.8,297.4,445.8,297.4z"/>
		<path class="st2" d="M433.5,182c-6.5-0.2-13.1-0.3-19.6-0.5c-3-0.1-6-0.4-9-0.7c-1.7-0.1-3.4-0.3-5.1-0.5
			c-1.1-0.1-2.2-0.3-3.3-0.5c-1.5-0.3-2.9-0.9-4.2-1.6c-0.7-0.4-1.4-0.9-1.8-1.6c-0.4-0.7-0.4-1.4,0-2.1c0.1-0.1,0.1-0.2,0.2-0.3
			c1.4-1.7,2.9-3.3,4.7-4.6c1.2-0.9,2.4-1.5,3.8-2c2.1-0.7,4.2-1.3,6.3-1.9c0.4-0.1,0.8-0.2,1.2-0.2c1.7-0.2,3.4-0.3,5.1-0.3
			c3,0,5.9,0,8.9,0.2c0.7,0.1,1.5,0.1,2.3,0.1c3.8,0.2,7.7,0.3,11.5,0.6c8,0.5,15.4,2.9,22.1,7.1c1.3,0.8,2.5,1.7,3.6,2.7
			c0.9,0.8,1.2,1.8,1.2,3c0,0.6-0.3,1-0.8,1.4c-0.7,0.5-1.5,0.7-2.3,0.9c-1.1,0.2-2.2,0.4-3.3,0.5c-3.6,0.2-7.1,0.4-10.7,0.4
			C440.8,181.9,437.2,181.9,433.5,182C433.5,181.9,433.5,182,433.5,182z"/>
	</g>
	<path class="st3" d="M623.6,332c0,1.5-1,2.2-2.4,1.5c-3.1-1.4-5.4-3.6-6.5-6.9c-0.8-2.4-1-4.8-0.6-7.2c0.1-1,0.6-1.2,1.2-0.6
		c3.3,3.5,6.6,7,8.1,11.7c0.1,0.3,0.1,0.5,0.2,0.8C623.6,331.6,623.6,331.8,623.6,332z"/>
	<path class="st3" d="M557.6,323c0,1,0,2-0.4,2.9c-0.5,1.1-1.3,1.4-2.3,0.7c-0.8-0.6-1.3-1.4-1.7-2.3c-1.1-2.8-1.9-5.7-1.5-8.8
		c0.2-1.5,0.8-2.5,1.7-2.6c1.3-0.1,1.8,1,2.3,1.9C556.9,317.4,557.5,320.1,557.6,323z"/>
	<path class="st3" d="M572.4,324.8c0-1.4,0.2-2.7,0.7-4c0.7-1.6,2-1.9,3-0.5c1.9,2.5,2.6,5.5,2.4,8.6c-0.1,1.4-0.7,2-1.8,2.2
		c-1.1,0.2-2.5-0.3-3.1-1.3c-0.8-1.3-1-2.8-1.2-4.3C572.4,325.3,572.4,325.1,572.4,324.8z"/>
</g>
</svg>
